<?xml version="1.0" encoding="utf-8"?>
<svg version="1.1" xmlns:xlink="http://www.w3.org/1999/xlink" width="25px" height="19px" xmlns="http://www.w3.org/2000/svg">
  <g transform="matrix(1 0 0 1 -368 -12 )">
    <path d="M 1.7857142857142856 9.5  C 3.3389136904761902 11.931547619047619  5.324590773809524 13.698660714285714  7.7427455357142865 14.801339285714286  L 8.830915178571429 12.808035714285714  C 8.021763392857142 12.214285714285714  7.389322916666667 11.465029761904763  6.93359375 10.560267857142856  C 6.477864583333334 9.655505952380953  6.25 8.69890873015873  6.25 7.690476190476191  C 6.25 6.5500992063492065  6.533668154761905 5.489831349206348  7.1010044642857135 4.509672619047619  C 4.971168154761905 5.612351190476191  3.1994047619047623 7.27579365079365  1.7857142857142856 9.5  Z M 12.974330357142858 4.552083333333334  C 13.104538690476192 4.420138888888886  13.169642857142858 4.259920634920634  13.169642857142858 4.071428571428572  C 13.169642857142858 3.882936507936507  13.104538690476192 3.7227182539682535  12.974330357142858 3.5907738095238093  C 12.844122023809526 3.4588293650793633  12.686011904761903 3.3928571428571432  12.5 3.3928571428571432  C 11.337425595238097 3.3928571428571432  10.339936755952381 3.8146081349206344  9.507533482142858 4.658110119047619  C 8.675130208333334 5.501612103174603  8.258928571428571 6.5124007936507935  8.258928571428571 7.690476190476191  C 8.258928571428571 7.878968253968253  8.324032738095239 8.039186507936506  8.454241071428571 8.171130952380953  C 8.584449404761905 8.303075396825395  8.742559523809526 8.369047619047619  8.928571428571429 8.369047619047619  C 9.114583333333334 8.369047619047619  9.272693452380953 8.303075396825395  9.402901785714286 8.171130952380953  C 9.533110119047619 8.039186507936506  9.598214285714286 7.878968253968253  9.598214285714286 7.690476190476191  C 9.598214285714286 6.879960317460316  9.88188244047619 6.187251984126984  10.44921875 5.612351190476191  C 11.01655505952381 5.0374503968253945  11.70014880952381 4.749999999999998  12.5 4.75  C 12.686011904761903 4.749999999999998  12.844122023809526 4.684027777777776  12.974330357142858 4.552083333333334  Z M 18.010602678571427 0.989583333333334  C 18.159412202380953 1.0838293650793633  18.233816964285715 1.2110615079365068  18.233816964285715 1.3712797619047623  C 18.233816964285715 1.4372519841269822  18.229166666666668 1.4796626984126953  18.219866071428573 1.4985119047619058  C 17.234002976190478 3.279761904761906  15.764508928571427 5.951636904761906  13.811383928571427 9.514136904761905  C 11.85825892857143 13.076636904761905  10.39341517857143 15.743799603174605  9.416852678571429 17.515625  L 8.733258928571429 18.773809523809526  C 8.640252976190476 18.924603174603174  8.510044642857142 19  8.342633928571429 19  C 8.231026785714286 19  7.607886904761905 18.67013888888889  6.4732142857142865 18.010416666666664  C 6.324404761904763 17.916170634920636  6.25 17.78422619047619  6.25 17.614583333333336  C 6.25 17.501488095238095  6.454613095238096 17.091517857142858  6.8638392857142865 16.38467261904762  C 5.533854166666667 15.772073412698413  4.3085007440476195 14.956845238095237  3.1877790178571432 13.938988095238095  C 2.067057291666667 12.921130952380953  1.0974702380952384 11.766617063492063  0.27901785714285715 10.475446428571429  C 0.09300595238095237 10.18328373015873  0 9.85813492063492  0 9.5  C 0 9.141865079365079  0.09300595238095237 8.816716269841269  0.27901785714285715 8.524553571428571  C 1.7020089285714288 6.309771825396825  3.469122023809524 4.561507936507935  5.580357142857143 3.279761904761906  C 7.691592261904763 1.9980158730158721  9.998139880952381 1.3571428571428565  12.5 1.3571428571428565  C 13.327752976190476 1.3571428571428565  14.16480654761905 1.4372519841269822  15.011160714285715 1.5974702380952377  L 15.764508928571427 0.2261904761904754  C 15.857514880952381 0.07539682539682513  15.987723214285715 0  16.155133928571427 0  C 16.201636904761905 0  16.285342261904763 0.028273809523809423  16.40625 0.08482142857142827  C 16.527157738095237 0.14136904761904712  16.671316964285715 0.21440972222221988  16.838727678571427 0.3039434523809529  C 17.006138392857142 0.39347718253968167  17.159598214285715 0.4806547619047623  17.299107142857142 0.5654761904761906  C 17.438616071428573 0.6502976190476188  17.585100446428573 0.7374751984126953  17.738560267857142 0.8270089285714283  C 17.892020089285715 0.9165426587301571  17.982700892857142 0.9707341269841256  18.010602678571427 0.989583333333334  Z M 18.638392857142858 6.502976190476191  C 18.71279761904762 6.927083333333334  18.75 7.322916666666666  18.75 7.690476190476191  C 18.75 9.000496031746032  18.382626488095237 10.195064484126982  17.647879464285715 11.274181547619047  C 16.913132440476193 12.35329861111111  15.941220238095239 13.12847222222222  14.732142857142858 13.599702380952381  L 18.638392857142858 6.502976190476191  Z M 24.720982142857142 8.524553571428571  C 24.90699404761905 8.844990079365079  25 9.170138888888888  25 9.5  C 25 9.82986111111111  24.90699404761905 10.15500992063492  24.720982142857142 10.475446428571429  C 24.358258928571427 11.07862103174603  23.851376488095237 11.761904761904763  23.200334821428573 12.525297619047619  C 21.805245535714285 14.146329365079367  20.189267113095237 15.40451388888889  18.352399553571427 16.29985119047619  C 16.51553199404762 17.19518849206349  14.564732142857142 17.642857142857142  12.5 17.642857142857142  L 13.532366071428573 15.776785714285714  C 15.504092261904765 15.607142857142856  17.329334077380953 14.961557539682538  19.008091517857142 13.840029761904763  C 20.686848958333336 12.718501984126982  22.088913690476193 11.271825396825395  23.214285714285715 9.5  C 22.144717261904763 7.812996031746032  20.833333333333336 6.427579365079366  19.280133928571427 5.34375  L 20.159040178571427 3.760416666666666  C 21.042596726190478 4.363591269841267  21.891276041666668 5.08457341269841  22.705078125 5.923363095238094  C 23.518880208333336 6.762152777777776  24.190848214285715 7.629216269841269  24.720982142857142 8.524553571428571  Z " fill-rule="nonzero" fill="#000000" stroke="none" transform="matrix(1 0 0 1 368 12 )" />
  </g>
</svg>